/* XPM */
static char * C:\Users\Dain\Documents\yubico graphics\neoman_xpm[] = {
"32 32 179 2",
"  	c None",
". 	c #FFFFFF",
"+ 	c #FEFEFD",
"@ 	c #F3F8EB",
"# 	c #EEF6E3",
"$ 	c #F1F7E8",
"% 	c #FBFDF8",
"& 	c #D7E9BE",
"* 	c #AED279",
"= 	c #9FCA60",
"- 	c #95C54F",
"; 	c #90C247",
"> 	c #93C44C",
", 	c #9CC95C",
"' 	c #A9D071",
") 	c #C9E2A6",
"! 	c #E2EFCF",
"~ 	c #9ECA60",
"{ 	c #87BD39",
"] 	c #8BC040",
"^ 	c #8CC041",
"/ 	c #8CC040",
"( 	c #89BE3B",
"_ 	c #D6E8BB",
": 	c #FCFDFA",
"< 	c #A8CF70",
"[ 	c #88BE3A",
"} 	c #85BC35",
"| 	c #84BB34",
"1 	c #85BC37",
"2 	c #84BC34",
"3 	c #8BBF3F",
"4 	c #8ABF3D",
"5 	c #9CC85B",
"6 	c #EBF4DF",
"7 	c #F8FBF3",
"8 	c #97C654",
"9 	c #93C44D",
"0 	c #ACD176",
"a 	c #D5E8B9",
"b 	c #E0EECC",
"c 	c #B5D684",
"d 	c #99C757",
"e 	c #8ABF3E",
"f 	c #90C248",
"g 	c #EAF4DD",
"h 	c #ADD379",
"i 	c #F9FCF6",
"j 	c #CCE3AA",
"k 	c #82BB31",
"l 	c #E9F3DB",
"m 	c #8DC042",
"n 	c #C7E0A4",
"o 	c #E7F1D8",
"p 	c #9AC758",
"q 	c #FCFDF9",
"r 	c #E6F1D5",
"s 	c #C2DD9B",
"t 	c #FDFEFC",
"u 	c #FAFCF6",
"v 	c #FAFBF6",
"w 	c #FBFCF7",
"x 	c #82BA30",
"y 	c #D0E5B2",
"z 	c #ABD173",
"A 	c #A6CE6C",
"B 	c #F0F7E7",
"C 	c #7FB92C",
"D 	c #E1EECE",
"E 	c #91C249",
"F 	c #83BB33",
"G 	c #DDECC8",
"H 	c #D1E5B2",
"I 	c #86BC37",
"J 	c #E9F3DA",
"K 	c #85BC36",
"L 	c #8FC246",
"M 	c #EBF4DE",
"N 	c #ADD278",
"O 	c #AED278",
"P 	c #87BD38",
"Q 	c #FBFDF9",
"R 	c #9BC85A",
"S 	c #89BF3D",
"T 	c #C1DD98",
"U 	c #B6D787",
"V 	c #8BBF3E",
"W 	c #A6CE6D",
"X 	c #E1EECD",
"Y 	c #86BD37",
"Z 	c #F6FAF1",
"` 	c #B0D37D",
" .	c #BBDA90",
"..	c #BCDA90",
"+.	c #A4CD68",
"@.	c #A5CE6B",
"#.	c #C3DE9C",
"$.	c #9ECA5F",
"%.	c #DEEDC9",
"&.	c #F9FCF5",
"*.	c #9AC757",
"=.	c #FEFFFE",
"-.	c #F0F6E7",
";.	c #F6FAF0",
">.	c #9DC95E",
",.	c #E4F0D4",
"'.	c #D9EAC0",
").	c #B3D581",
"!.	c #EAF3DC",
"~.	c #89BE3C",
"{.	c #B9D98D",
"].	c #F2F8EA",
"^.	c #94C44D",
"/.	c #B5D685",
"(.	c #E5F1D4",
"_.	c #E8F2D9",
":.	c #A9D072",
"<.	c #FCFEFB",
"[.	c #E4F0D1",
"}.	c #DCEBC5",
"|.	c #BDDA93",
"1.	c #8DC143",
"2.	c #ECF4DF",
"3.	c #C1DD99",
"4.	c #93C34C",
"5.	c #88BE3B",
"6.	c #98C654",
"7.	c #B7D889",
"8.	c #B3D582",
"9.	c #C0DC97",
"0.	c #BAD88C",
"a.	c #A5CD6A",
"b.	c #ECF4E0",
"c.	c #8EC144",
"d.	c #FAFCF8",
"e.	c #E8F2D8",
"f.	c #9AC858",
"g.	c #89BF3C",
"h.	c #C4DE9D",
"i.	c #A1CC64",
"j.	c #B5D686",
"k.	c #9FCA61",
"l.	c #CBE2AA",
"m.	c #8CC042",
"n.	c #ACD276",
"o.	c #A0CB62",
"p.	c #C7E1A4",
"q.	c #E4F0D2",
"r.	c #83BB32",
"s.	c #D3E7B7",
"t.	c #B0D47D",
"u.	c #BFDC96",
"v.	c #FFFFFE",
"w.	c #FEFEFE",
"x.	c #8EC145",
"y.	c #9CC85C",
"z.	c #EDF5E2",
"A.	c #C3DE9D",
"B.	c #84BB33",
"C.	c #91C349",
"D.	c #EEF5E3",
"E.	c #91C248",
"F.	c #F5FAEF",
"G.	c #D7E9BC",
"H.	c #B0D47C",
"I.	c #96C652",
"J.	c #91C34A",
"K.	c #F2F8E9",
"L.	c #A7CF6D",
"M.	c #92C34B",
"N.	c #DBEBC4",
"O.	c #E1EFCE",
"P.	c #B2D480",
"Q.	c #A2CC66",
"R.	c #98C755",
"S.	c #96C551",
"T.	c #ACD277",
"U.	c #D1E5B3",
"V.	c #F4F9ED",
"                                                                ",
"                          . . . . . . .                         ",
"                    . . . + @ # # $ % . . .                     ",
"                . . . & * = - ; ; > , ' ) . . .                 ",
"              . . ! ~ { ] ^ ^ ^ ^ ^ ^ / ( ] _ : . .             ",
"            . . < ] ] ^ ] [ } | 1 2 { 3 ^ ^ 4 5 6 . .           ",
"          . 7 8 ] ^ 3 9 0 a + . . . b c d e ^ ^ f g . .         ",
"        . . d 3 ^ { h $ . . . . . . . . i j k ^ ] ; l .         ",
"      . . 0 3 ^ m n . . . . . . . . . . . . o f ^ ^ p q .       ",
"      . r ^ ^ [ s . t u % v . . . . . w w : . l x ^ 4 y .       ",
"    . . z 3 3 A . . B / } C D . . . E 2 F G . . H e ^ I . .     ",
"    . J K ^ L M . . . N ] ] O . . b P ^ , : . . Q R ^ S T .     ",
"    . U V ^ W . . . . X Y ^ 8 Z . ` 3 e  .. . . . ..e ^ +.. .   ",
"  . . @.^ S #.. . . . . $.] 4 %.&.*.^ x =.. . . . -.Y ^ 8 ;..   ",
"  . q >.^ P ,.. . . . . '.S 3 ).!.~.V {.. . . . . . Y ^ m M .   ",
"  . 7 d ^ K &.. . . . . ].^.^ S /.3 e (.. . . . . . 8 ] ~._..   ",
"  . 7 d ^ K &.. . . . . . :./ ^ e ^ = : . . . . . . 8 ] S _..   ",
"  . <.$.^ P [.. . . . . . }.{ ^ ^ e |.. . . . . . . Y ^ 1.2..   ",
"  . . @.^ 4 3.. . . . . . . 4./ ^ 5.. . . . . . . # Y ^ 6.;..   ",
"    . 7.e ^ @.. . . . . . . 8.3 e 9.. . . . . . . 0.e ^ a.. .   ",
"    . b.} ^ c.!.. . . . . d.k ^ ] e.. . . . . . % f.^ g.h..     ",
"    . . * 3 3 i.. . . . . j.3 ^ k.=.. . . . . . l.4 ^ ~.. .     ",
"      . _.m.^ ~. .. . . Q n.o.$.p.. . . . . . q.r.^ 4 s..       ",
"      . . t.e ^ ^ u.. . v.=.=.w.. . . . . . b x.^ ^ y.: .       ",
"        . . , 3 ^ 5.A z.. . . . . . . . ;.A.B.^ ] C.D..         ",
"          . i R 3 ^ 3 E.< j F.. . : G.H.I.e ^ ^ J.D.. .         ",
"            . . N ^ 3 ^ / ~.K 2 2 } [ 3 ^ / e = K.. .           ",
"              . . (.L.Y 3 ^ ^ ^ ^ ^ ^ ] [ M.N.t . .             ",
"                . . . O.P.Q.R.9 > S.= T.U.. . .                 ",
"                    . . . . Z K.$ V.+ . . .                     ",
"                          . . . . . .                           ",
"                                                                "};
