/* XPM */
static char * neoman_xpm[] = {
"32 32 81 1",
" 	c None",
".	c #8CC041",
"+	c #8BC040",
"@	c #89BE3C",
"#	c #88BE3A",
"$	c #8CC040",
"%	c #87BD39",
"&	c #A9D071",
"*	c #CCE3AA",
"=	c #E1EFCD",
"-	c #EEF6E2",
";	c #E1EECE",
">	c #CCE4AB",
",	c #88BE3B",
"'	c #C1DD98",
")	c #FAFDF7",
"!	c #FFFFFF",
"~	c #FAFCF8",
"{	c #C0DD97",
"]	c #98C755",
"^	c #F3F8EA",
"/	c #F2F8EA",
"(	c #A3CC66",
"_	c #A2CD66",
":	c #FBFDF8",
"<	c #F1F8E8",
"[	c #F1F8E9",
"}	c #F8FBF4",
"|	c #FAFCF7",
"1	c #F9FCF6",
"2	c #82BA30",
"3	c #A1CC63",
"4	c #B2D580",
"5	c #F6FAEF",
"6	c #AED378",
"7	c #86BD37",
"8	c #8ABF3E",
"9	c #AAD173",
"0	c #C4DF9E",
"a	c #DAEBC2",
"b	c #8ABF3D",
"c	c #E0EECB",
"d	c #92C44B",
"e	c #94C44E",
"f	c #ACD276",
"g	c #92C34A",
"h	c #AAD072",
"i	c #E6F1D5",
"j	c #88BE39",
"k	c #C8E1A4",
"l	c #CCE3AB",
"m	c #F7FBF2",
"n	c #86BD38",
"o	c #B6D787",
"p	c #D5E8B9",
"q	c #8BBF3F",
"r	c #E1EFCE",
"s	c #8EC145",
"t	c #A7CF6E",
"u	c #AFD37B",
"v	c #EDF5E1",
"w	c #DCECC4",
"x	c #E3F0D1",
"y	c #96C551",
"z	c #E2EFCE",
"A	c #C0DC97",
"B	c #87BE39",
"C	c #FEFEFC",
"D	c #E2EFD0",
"E	c #B4D683",
"F	c #AAD073",
"G	c #E8F2D9",
"H	c #C0DD96",
"I	c #F6FAF0",
"J	c #9AC858",
"K	c #B8D98A",
"L	c #85BD36",
"M	c #84BC34",
"N	c #CFE5B0",
"O	c #98C756",
"P	c #FAFCF6",
"                                ",
"           ..........           ",
"         ..............         ",
"       ......+@##@+......       ",
"      ....$%&*=--;>&%$....      ",
"     ....,')!!!!!!!!~{,....     ",
"    ....]^!!!!!!!!!!!!/]....    ",
"   ....(!!!!!!!!!!!!!!!!_....   ",
"   ...]!!:<[[}!!!!|<[<|!!]....  ",
"  ...,^!!12%%3!!!!4%%25!!^#...  ",
"  ..$'!!!!6..75!!!8..9!!!!{$..  ",
" ...%)!!!!=@.$0!!ab.@c!!!!:%... ",
" ...&!!!!!!d..e!!f..g!!!!!!h... ",
" ..+*!!!!!!0$.,i!j.+k!!!!!!l+.. ",
" ..@=!!!!!!mn..opq.%:!!!!!!r@.. ",
" ..#-!!!!!!!&..st..u!!!!!!!v#.. ",
" ..#-!!!!!!!wb..+.,x!!!!!!!v#.. ",
" ..@;!!!!!!!!s....y!!!!!!!!z@.. ",
" ..+>!!!!!!!!A...ql!!!!!!!!l+.. ",
" ...&!!!!!!!!^B..#C!!!!!!!!h... ",
" ...%~!!!!!!!D@..E!!!!!!!!:%... ",
"  ..${!!!!!!!F..#G!!!!!!!!H$..  ",
"  ...,/!!!!!In..J!!!!!!!!/,...  ",
"   ...]!!!!!KL7MN!!!!!!!!O....  ",
"   ...._!!!!PPPP!!!!!!!!_....   ",
"    ....]^!!!!!!!!!!!!/O....    ",
"     ....#{:!!!!!!!!:H,....     ",
"      ....$%hlrvvzlh%$....      ",
"       ......+@##@+......       ",
"        ................        ",
"           ..........           ",
"                                "};
